<svg width="24" height="24" viewBox="0 0 24 24" fill="none" xmlns="http://www.w3.org/2000/svg">
<path d="M10.6126 20.4001L19.6989 11.3138C20.5033 10.4866 20.9498 9.37604 20.9417 8.22225C20.9337 7.06846 20.4717 5.96421 19.6559 5.14833C18.84 4.33246 17.7357 3.87054 16.582 3.86249C15.4282 3.85444 14.3176 4.3009 13.4904 5.10531L3.79814 14.7968C3.54955 15.0454 3.35235 15.3404 3.21779 15.6652C3.08323 15.9899 3.01396 16.338 3.01393 16.6895C3.01386 17.3995 3.29581 18.0804 3.79777 18.5824C4.29972 19.0845 4.98056 19.3666 5.6905 19.3667C6.40044 19.3667 7.08134 19.0848 7.58339 18.5828L16.6704 9.49656C16.84 9.31377 16.9322 9.07234 16.9276 8.823C16.9229 8.57367 16.8218 8.33584 16.6454 8.1595C16.4691 7.98317 16.2313 7.88205 15.9819 7.8774C15.7326 7.87274 15.4912 7.96492 15.3084 8.13456L6.82439 16.6148C6.68294 16.7514 6.49349 16.827 6.29684 16.8253C6.10019 16.8236 5.91208 16.7447 5.77303 16.6057C5.63397 16.4666 5.55509 16.2785 5.55339 16.0819C5.55168 15.8852 5.62727 15.6958 5.76389 15.5543L14.2494 7.07406C14.7199 6.62855 15.3433 6.38026 15.9913 6.38026C16.6393 6.38026 17.2626 6.62855 17.7331 7.07406C18.1847 7.54152 18.437 8.16603 18.437 8.81594C18.437 9.46584 18.1847 10.0904 17.7331 10.5578L8.64389 19.6433C8.25717 20.0363 7.79648 20.3488 7.28839 20.5628C6.7803 20.7768 6.23486 20.8881 5.68353 20.8903C5.13221 20.8925 4.58591 20.7855 4.07614 20.5755C3.56637 20.3655 3.10321 20.0567 2.71339 19.6668C2.32357 19.2769 2.01479 18.8137 1.80486 18.3039C1.59493 17.7942 1.48801 17.2478 1.49027 16.6965C1.49252 16.1452 1.60391 15.5998 1.818 15.0917C2.03209 14.5836 2.34464 14.123 2.73764 13.7363L12.4299 4.04481C13.5346 2.94025 15.0328 2.31975 16.5949 2.31982C17.3684 2.31986 18.1343 2.47225 18.8489 2.76828C19.5635 3.06432 20.2128 3.49821 20.7598 4.04519C21.3067 4.59216 21.7405 5.2415 22.0365 5.95613C22.3325 6.67077 22.4848 7.4367 22.4848 8.2102C22.4847 8.9837 22.3323 9.74962 22.0363 10.4642C21.7403 11.1788 21.3064 11.8281 20.7594 12.3751L11.6731 21.4606C11.5317 21.5972 11.3422 21.6728 11.1456 21.6711C10.9489 21.6694 10.7608 21.5905 10.6218 21.4514C10.4827 21.3124 10.4038 21.1243 10.4021 20.9276C10.4004 20.731 10.476 20.5415 10.6126 20.4001Z" fill="white"/>
</svg>
