<svg width="24" height="24" viewBox="0 0 24 24" fill="none" xmlns="http://www.w3.org/2000/svg">
<g clip-path="url(#clip0_707_16712)">
<path d="M19.3435 22.7316C19.5493 22.7316 19.7523 22.8099 19.9068 22.959C20.8942 23.9125 22.3345 24.23 23.6148 23.8326C22.7908 22.1159 22.6766 20.1492 23.3152 18.3283C24.1077 16.0627 24.3063 13.7918 23.4044 11.5143C22.612 9.51356 21.083 7.85132 19.1478 6.90344C19.2669 7.53814 19.3269 8.18483 19.3269 8.83835C19.3269 11.6123 18.2602 14.2213 16.3235 16.1848C14.3865 18.1485 11.79 19.2527 9.01233 19.294C8.49627 19.3021 7.98253 19.2717 7.47461 19.2047C9.00116 21.8806 11.8802 23.6233 15.0439 23.6702C16.4279 23.6916 17.7568 23.4017 18.9943 22.8107C19.1058 22.7574 19.2251 22.7316 19.3435 22.7316Z" fill="#48A5C3"/>
<path d="M9.03549 0.00176341C4.10801 -0.0960782 0.0119079 3.89018 2.67186e-05 8.81659C-0.00288417 10.0202 0.232066 11.1872 0.698403 12.2852C0.705175 12.3012 0.711472 12.3174 0.717175 12.3338C1.35573 14.1548 1.24161 16.1214 0.417532 17.8381C1.69803 18.2353 3.13815 17.918 4.12559 16.9645C4.36886 16.7295 4.73284 16.6703 5.03807 16.8162C6.27543 17.4072 7.60446 17.698 8.98838 17.6758C13.8773 17.6032 17.7069 13.7213 17.7069 8.83834C17.7069 4.06192 13.8169 0.0978822 9.03549 0.00176341ZM4.13094 10.1583C3.423 10.1583 2.84908 9.58537 2.84908 8.87861C2.84908 8.17186 3.423 7.59889 4.13094 7.59889C4.83888 7.59889 5.4128 8.17186 5.4128 8.87861C5.41274 9.58537 4.83888 10.1583 4.13094 10.1583ZM8.85347 10.1583C8.14553 10.1583 7.57161 9.58537 7.57161 8.87861C7.57161 8.17186 8.14553 7.59889 8.85347 7.59889C9.56141 7.59889 10.1353 8.17186 10.1353 8.87861C10.1353 9.58537 9.56141 10.1583 8.85347 10.1583ZM13.5761 10.1583C12.8681 10.1583 12.2942 9.58537 12.2942 8.87861C12.2942 8.17186 12.8681 7.59889 13.5761 7.59889C14.284 7.59889 14.8579 8.17186 14.8579 8.87861C14.8579 9.58537 14.284 10.1583 13.5761 10.1583Z" fill="#48A5C3"/>
</g>
<defs>
<clipPath id="clip0_707_16712">
<rect width="24" height="24" fill="white"/>
</clipPath>
</defs>
</svg>
