<svg width="24" height="24" viewBox="0 0 24 24" fill="none" xmlns="http://www.w3.org/2000/svg">
<g clip-path="url(#clip0_707_16716)">
<path d="M15.5156 0H7.07812C3.20133 0 0 3.20133 0 7.07812C0 10.6233 2.68359 13.5635 6.0983 14.0414C6.31303 14.1423 6.81834 14.1094 7.07812 14.1094V16.2187C7.07812 16.4783 7.22095 16.7166 7.44961 16.8388C7.67536 16.9599 7.95352 16.9489 8.1713 16.8038L12.2129 14.1094H15.5156C19.3924 14.1094 22.5938 10.9549 22.5938 7.07812C22.5938 3.20133 19.3924 0 15.5156 0ZM7.07812 8.48437C6.30291 8.48437 5.67188 7.85334 5.67188 7.07812C5.67188 6.30291 6.30291 5.67187 7.07812 5.67187C7.85334 5.67187 8.48438 6.30291 8.48438 7.07812C8.48438 7.85334 7.85334 8.48437 7.07812 8.48437ZM11.2969 8.48437C10.5217 8.48437 9.89062 7.85334 9.89062 7.07812C9.89062 6.30291 10.5217 5.67187 11.2969 5.67187C12.0721 5.67187 12.7031 6.30291 12.7031 7.07812C12.7031 7.85334 12.0721 8.48437 11.2969 8.48437ZM15.5156 8.48437C14.7404 8.48437 14.1094 7.85334 14.1094 7.07812C14.1094 6.30291 14.7404 5.67187 15.5156 5.67187C16.2908 5.67187 16.9219 6.30291 16.9219 7.07812C16.9219 7.85334 16.2908 8.48437 15.5156 8.48437Z" fill="white"/>
<path d="M23.1301 10.7859C21.7544 13.5821 18.8369 15.5156 15.5156 15.5156H12.6386L8.9513 17.9737C8.29102 18.4148 7.45552 18.4376 6.78492 18.0781C6.09895 17.7115 5.67188 16.9987 5.67188 16.2187V15.3982C4.08769 15.1312 2.62528 14.41 1.47783 13.3968C1.45378 13.6344 1.40625 13.8675 1.40625 14.1093C1.40625 17.9861 4.60758 21.1406 8.48438 21.1406H11.7871L15.8287 23.8818C16.0465 24.027 16.3247 24.038 16.5504 23.9168C16.779 23.7946 16.9219 23.5564 16.9219 23.2968V21.1406C17.1817 21.1406 17.687 21.1735 17.9017 21.0726C21.3164 20.5947 24 17.6538 24 14.1093C24 12.9225 23.6782 11.7988 23.1301 10.7859Z" fill="white"/>
</g>
<defs>
<clipPath id="clip0_707_16716">
<rect width="24" height="24" fill="white"/>
</clipPath>
</defs>
</svg>
