<svg width="68" height="68" viewBox="0 0 68 68" fill="none" xmlns="http://www.w3.org/2000/svg">
<rect x="1" y="1" width="66" height="66" rx="33" fill="#48A5C3"/>
<path d="M39.4108 13.9465H26.4249C20.4583 13.9465 15.5312 19.2963 15.5312 25.7749C15.5312 31.6993 19.6615 36.6129 24.9169 37.4115C25.2474 37.5801 26.0251 37.5251 26.4249 37.5251V41.0501C26.4249 41.4838 26.6447 41.882 26.9967 42.0863C27.3441 42.2887 27.7722 42.2703 28.1074 42.0278L34.3276 37.5251H39.4108C45.3774 37.5251 50.3044 32.2536 50.3044 25.7749C50.3044 19.2963 45.3774 13.9465 39.4108 13.9465ZM26.4249 28.125C25.2318 28.125 24.2606 27.0704 24.2606 25.7749C24.2606 24.4794 25.2318 23.4249 26.4249 23.4249C27.618 23.4249 28.5892 24.4794 28.5892 25.7749C28.5892 27.0704 27.618 28.125 26.4249 28.125ZM32.9178 28.125C31.7247 28.125 30.7535 27.0704 30.7535 25.7749C30.7535 24.4794 31.7247 23.4249 32.9178 23.4249C34.111 23.4249 35.0822 24.4794 35.0822 25.7749C35.0822 27.0704 34.111 28.125 32.9178 28.125ZM39.4108 28.125C38.2177 28.125 37.2465 27.0704 37.2465 25.7749C37.2465 24.4794 38.2177 23.4249 39.4108 23.4249C40.6039 23.4249 41.5751 24.4794 41.5751 25.7749C41.5751 27.0704 40.6039 28.125 39.4108 28.125Z" fill="white"/>
<path d="M51.1306 31.9712C49.0134 36.644 44.5232 39.8751 39.4115 39.8751H34.9835L29.3086 43.983C28.2924 44.7201 27.0065 44.7581 25.9744 44.1575C24.9187 43.5447 24.2614 42.3537 24.2614 41.0501V39.6789C21.8232 39.2327 19.5725 38.0275 17.8065 36.3344C17.7694 36.7315 17.6963 37.121 17.6963 37.5251C17.6963 44.0037 22.6233 49.2752 28.59 49.2752H33.6731L39.8934 53.8562C40.2285 54.0987 40.6567 54.1171 41.0041 53.9147C41.356 53.7105 41.5758 53.3123 41.5758 52.8786V49.2752C41.9757 49.2752 42.7533 49.3303 43.0838 49.1616C48.3393 48.363 52.4695 43.4483 52.4695 37.5251C52.4695 35.5418 51.9741 33.6638 51.1306 31.9712Z" fill="white"/>
<rect x="1" y="1" width="66" height="66" rx="33" stroke="#48A5C3" stroke-width="2"/>
</svg>
