<svg width="24" height="24" viewBox="0 0 24 24" fill="none" xmlns="http://www.w3.org/2000/svg">
<path d="M14.8936 7.85715C14.1389 7.85715 13.525 7.2435 13.525 6.48923V1.99463H6.52564C5.33978 1.99463 4.375 2.95894 4.375 4.14422V19.8558C4.375 21.0411 5.33978 22.0054 6.52564 22.0054H17.4744C18.6602 22.0054 19.625 21.0411 19.625 19.8558V7.85715H14.8936ZM7.58141 16.0647H10.4249C10.7489 16.0647 11.0115 16.3272 11.0115 16.6509C11.0115 16.9747 10.7489 17.2372 10.4249 17.2372H7.58141C7.25748 17.2372 6.99487 16.9747 6.99487 16.6509C6.99487 16.3272 7.25748 16.0647 7.58141 16.0647ZM6.99487 13.5243C6.99487 13.2005 7.25748 12.938 7.58141 12.938H16.184C16.5079 12.938 16.7705 13.2005 16.7705 13.5243C16.7705 13.848 16.5079 14.1105 16.184 14.1105H7.58141C7.25748 14.1105 6.99487 13.848 6.99487 13.5243ZM16.184 9.81133C16.5079 9.81133 16.7705 10.0738 16.7705 10.3976C16.7705 10.7213 16.5079 10.9838 16.184 10.9838H7.58141C7.25748 10.9838 6.99487 10.7213 6.99487 10.3976C6.99487 10.0738 7.25748 9.81133 7.58141 9.81133H16.184Z" fill="#2B6BC5"/>
<path d="M14.541 6.77747C14.541 6.89869 14.6366 6.99731 14.754 6.99731H19.6243C19.5074 6.77457 19.357 6.56998 19.1764 6.39354L15.0683 2.38265C14.9089 2.227 14.7313 2.09716 14.5411 1.99463V6.77747H14.541Z" fill="#2B6BC5"/>
</svg>
