<svg width="18" height="20" viewBox="0 0 18 20" fill="none" xmlns="http://www.w3.org/2000/svg">
<path d="M8.94357 8.54523C8.94357 8.54523 7.70607 8.81241 8.71857 6.58585C9.44982 4.98273 9.36545 3.11241 8.71857 2.13273C7.64982 0.559288 5.5967 1.06398 5.8217 1.98429C6.55295 5.10148 4.89357 6.05148 4.04982 8.01085C3.17795 9.99991 3.26232 12.8499 3.65607 15.3734C3.9092 16.9468 4.55607 18.9062 6.89045 18.9062H10.1248L8.94357 8.54523Z" fill="#FFDD67"/>
<path d="M7.25572 18.461C4.92134 18.461 4.41509 16.5016 4.16197 14.9282C3.76822 12.4047 3.71197 10.386 4.47134 8.33755C5.31509 6.11099 6.18697 6.05161 6.18697 1.65786C6.18697 1.45005 6.29947 1.30161 6.41197 1.18286C6.01822 1.3313 5.79322 1.5688 5.79322 1.92505C5.79322 5.22036 4.92134 6.02192 4.07759 8.01099C3.17759 10 3.26197 12.85 3.65572 15.3735C3.90884 16.9469 4.55572 18.9063 6.89009 18.9063H10.1245V18.461H7.25572Z" fill="#EBA352"/>
<path d="M12.9371 11.1282H8.94336C7.53711 11.1282 7.53711 8.54541 8.94336 8.54541H12.9371C14.3434 8.54541 14.3434 11.1282 12.9371 11.1282Z" fill="#FFDD67"/>
<path d="M13.2471 10.7124H9.2533C8.29705 10.7124 8.0158 9.5249 8.32518 8.78271C7.5658 9.40615 7.7908 11.1577 8.9158 11.1577H12.9377C13.3877 11.1577 13.6971 10.8905 13.8658 10.5046C13.6971 10.6233 13.5002 10.7124 13.2471 10.7124Z" fill="#EBA352"/>
<path d="M13.3594 13.7405H8.57812C6.89062 13.7405 6.89062 11.1577 8.57812 11.1577H13.3875C15.0469 11.1577 15.0469 13.7405 13.3594 13.7405Z" fill="#FFDD67"/>
<path d="M13.7531 13.2954H8.94375C7.81875 13.2954 7.45312 12.1079 7.84687 11.3657C6.94687 11.9892 7.2 13.7407 8.57812 13.7407H13.3875C13.9219 13.7407 14.2875 13.4735 14.4844 13.0876C14.2875 13.2063 14.0344 13.2954 13.7531 13.2954Z" fill="#EBA352"/>
<path d="M12.9094 16.3235H8.85938C7.45312 16.3235 7.45312 13.7407 8.85938 13.7407H12.9094C14.3438 13.7407 14.3438 16.3235 12.9094 16.3235Z" fill="#FFDD67"/>
<path d="M13.2478 15.8781H9.16967C8.21342 15.8781 7.90404 14.6906 8.24154 13.9187C7.48217 14.5421 7.67905 16.2937 8.8603 16.2937H12.9103C13.3603 16.2937 13.6697 16.0265 13.8384 15.6406C13.6978 15.8187 13.4728 15.8781 13.2478 15.8781Z" fill="#EBA352"/>
<path d="M12.4871 18.9063H9.87148C8.35273 18.9063 8.35273 16.3235 9.87148 16.3235H12.4871C14.0059 16.3235 14.0059 18.9063 12.4871 18.9063Z" fill="#FFDD67"/>
<path d="M12.8253 18.4906H10.2097C9.19718 18.4906 8.85968 17.3031 9.2253 16.5312C8.40968 17.1547 8.63468 18.9062 9.87218 18.9062H12.4878C12.9941 18.9062 13.3034 18.6391 13.4722 18.2531C13.3034 18.4016 13.0784 18.4906 12.8253 18.4906Z" fill="#EBA352"/>
</svg>
