<svg width="24" height="24" viewBox="0 0 24 24" fill="none" xmlns="http://www.w3.org/2000/svg">
<path d="M11.9957 20.2105C14.1725 20.2081 16.2595 19.3556 17.7987 17.8401C19.3379 16.3245 20.2038 14.2696 20.2062 12.1263V8.08421C20.2062 5.94015 19.3412 3.88389 17.8014 2.36781C16.2616 0.851727 14.1733 0 11.9957 0C9.81812 0 7.72974 0.851727 6.18996 2.36781C4.65019 3.88389 3.78516 5.94015 3.78516 8.08421V12.1263C3.7876 14.2696 4.65342 16.3245 6.19266 17.8401C7.73191 19.3556 9.81887 20.2081 11.9957 20.2105ZM5.83779 9.09474H9.94305V7.07368H5.93016C6.17137 5.66148 6.91304 4.37913 8.02348 3.45431C9.13391 2.52948 10.5413 2.02202 11.9957 2.02202C13.4501 2.02202 14.8575 2.52948 15.9679 3.45431C17.0783 4.37913 17.82 5.66148 18.0612 7.07368H14.0483V9.09474H18.1536V11.1158H14.0483V13.1368H18.0612C17.82 14.549 17.0783 15.8314 15.9679 16.7562C14.8575 17.681 13.4501 18.1885 11.9957 18.1885C10.5413 18.1885 9.13391 17.681 8.02348 16.7562C6.91304 15.8314 6.17137 14.549 5.93016 13.1368H9.94305V11.1158H5.83779V9.09474Z" fill="#EEEEEE"/>
<path d="M22 12.6316C21.9974 15.0976 21.0483 17.4619 19.361 19.2057C17.6738 20.9494 15.3861 21.9303 13 21.933H11C8.61395 21.93 6.32645 20.9491 4.63925 19.2054C2.95206 17.4617 2.00291 15.0976 2 12.6316H0C0.00344047 15.6456 1.16347 18.5351 3.22563 20.6664C5.28778 22.7976 8.08367 23.9965 11 24H13C15.9163 23.9965 18.7122 22.7976 20.7744 20.6664C22.8365 18.5351 23.9966 15.6456 24 12.6316H22Z" fill="#EEEEEE"/>
</svg>
