<svg width="24" height="24" viewBox="0 0 24 24" fill="none" xmlns="http://www.w3.org/2000/svg">
<g clip-path="url(#clip0_707_16741)">
<path d="M22.561 10.5607L13.2274 10.5889V1.43905C13.2274 0.641799 12.5856 0 11.7884 0C10.9914 0 10.3493 0.641799 10.3493 1.43905L10.3775 10.561H1.43905C0.641799 10.561 0 11.2028 0 12C0 12.797 0.641799 13.4388 1.43905 13.4388H10.3634V22.561C10.3634 23.3577 11.0052 24 11.8025 24C12.5997 24 13.2415 23.3577 13.2415 22.561V13.439H22.561C23.3582 13.439 24 12.7967 24 12C24 11.2025 23.351 10.5607 22.561 10.5607Z" fill="black" fill-opacity="0.6"/>
</g>
<defs>
<clipPath id="clip0_707_16741">
<rect width="24" height="24" fill="white"/>
</clipPath>
</defs>
</svg>
