<svg width="24" height="24" viewBox="0 0 24 24" fill="none" xmlns="http://www.w3.org/2000/svg">
<path d="M16.7285 11.2196L9.15369 2.31951C8.97849 2.1135 8.74462 2 8.49525 2C8.24588 2 8.01201 2.1135 7.83682 2.31951L7.27898 2.97479C6.916 3.40178 6.916 4.09576 7.27898 4.52209L13.6397 11.9959L7.27193 19.4779C7.09673 19.6839 7 19.9586 7 20.2514C7 20.5446 7.09673 20.8192 7.27193 21.0254L7.82976 21.6805C8.00509 21.8865 8.23883 22 8.4882 22C8.73757 22 8.97144 21.8865 9.14663 21.6805L16.7285 12.7723C16.9041 12.5656 17.0006 12.2897 17 11.9963C17.0006 11.7019 16.9041 11.4261 16.7285 11.2196Z" fill="#747474"/>
</svg>
