<svg width="24" height="24" viewBox="0 0 24 24" fill="none" xmlns="http://www.w3.org/2000/svg">
<path d="M21.8296 21.0071L17.2853 16.4628C18.68 14.8723 19.4496 12.8599 19.4496 10.7248C19.4496 8.39421 18.5419 6.20335 16.8941 4.55552C15.2462 2.9077 13.0554 2 10.7248 2C8.39421 2 6.20335 2.9077 4.55552 4.55552C2.9077 6.20335 2 8.39421 2 10.7248C2 13.0554 2.9077 15.2462 4.55552 16.8941C6.20335 18.5419 8.39421 19.4496 10.7248 19.4496C12.8599 19.4496 14.8723 18.68 16.4628 17.2853L21.0071 21.8296C21.1207 21.9432 21.2695 22 21.4183 22C21.5672 22 21.716 21.9432 21.8296 21.8296C22.0568 21.6024 22.0568 21.2343 21.8296 21.0071ZM5.37802 16.0716C3.95001 14.6433 3.16331 12.7444 3.16331 10.7248C3.16331 8.7052 3.95001 6.8063 5.37802 5.37802C6.8063 3.95001 8.7052 3.16331 10.7248 3.16331C12.7444 3.16331 14.6433 3.95001 16.0716 5.37802C17.4996 6.8063 18.2863 8.7052 18.2863 10.7248C18.2863 12.7444 17.4996 14.6433 16.0716 16.0716C14.6433 17.4996 12.7444 18.2863 10.7248 18.2863C8.7052 18.2863 6.8063 17.4996 5.37802 16.0716Z" fill="#747474"/>
</svg>
