<svg width="24" height="24" viewBox="0 0 24 24" fill="none" xmlns="http://www.w3.org/2000/svg">
<path d="M22.8183 17.2913C22.7547 17.051 22.6414 16.8267 22.4857 16.6329C22.33 16.4392 22.1355 16.2802 21.9145 16.1663L17.2758 13.7625C16.9015 13.5641 16.4683 13.5068 16.0553 13.6011C15.6422 13.6954 15.2769 13.935 15.0258 14.2763L14.2758 15.3038C14.2373 15.3572 14.1805 15.3946 14.1163 15.4091C14.0521 15.4236 13.9848 15.4142 13.927 15.3825C12.8241 14.7549 11.8143 13.9761 10.927 13.0688C10.0198 12.1815 9.24097 11.1717 8.61329 10.0688C8.58163 10.011 8.57217 9.94372 8.58667 9.8795C8.60117 9.81527 8.63865 9.75855 8.69204 9.72002L9.71579 8.97002C10.057 8.71894 10.2967 8.35357 10.391 7.94054C10.4853 7.5275 10.428 7.09433 10.2295 6.72002L7.84079 2.08502C7.72607 1.8638 7.56603 1.66923 7.37109 1.51399C7.17614 1.35876 6.95068 1.24635 6.70938 1.18408C6.46809 1.12181 6.21638 1.11108 5.97066 1.1526C5.72495 1.19411 5.49073 1.28694 5.28329 1.42502L2.36954 3.37502C1.9604 3.64744 1.63003 4.0226 1.41153 4.4629C1.19302 4.9032 1.09406 5.39318 1.12454 5.88377C1.1631 6.71324 1.27479 7.53769 1.45829 8.34752C2.24954 11.4 4.15829 14.5388 6.80954 17.1938C9.46079 19.8488 12.6033 21.75 15.6558 22.5338C16.4656 22.7172 17.2901 22.8289 18.1195 22.8675H18.307C18.7647 22.8665 19.2151 22.7536 19.619 22.5385C20.023 22.3235 20.3682 22.0129 20.6245 21.6338L22.567 18.72C22.7072 18.513 22.8021 18.2787 22.8454 18.0325C22.8887 17.7863 22.8795 17.5337 22.8183 17.2913ZM21.3183 17.8838L19.387 20.8013C19.2589 20.9905 19.0835 21.143 18.8783 21.2436C18.6731 21.3442 18.4451 21.3895 18.217 21.375C17.4814 21.341 16.75 21.2444 16.0308 21.0863C13.2333 20.3588 10.3383 18.6 7.87454 16.125C5.41079 13.65 3.64454 10.7663 2.91704 7.96877C2.75755 7.24967 2.6597 6.51826 2.62454 5.78252C2.60956 5.55489 2.65468 5.32733 2.75538 5.12263C2.85608 4.91794 3.00882 4.74332 3.19829 4.61627L6.11204 2.67377C6.1564 2.64407 6.20866 2.6284 6.26204 2.62877H6.33329C6.37022 2.6384 6.40468 2.65574 6.43441 2.67966C6.46415 2.70357 6.48848 2.73352 6.50579 2.76752L8.90579 7.40627C8.93562 7.4638 8.94408 7.53004 8.92966 7.59321C8.91524 7.65638 8.87888 7.71239 8.82704 7.75127L7.80329 8.50127C7.45614 8.75954 7.21561 9.13603 7.12717 9.55958C7.03873 9.98314 7.1085 10.4244 7.32329 10.8C8.01737 12.0133 8.87546 13.125 9.87329 14.1038C10.852 15.1017 11.9637 15.9598 13.177 16.6538C13.5527 16.8686 13.9939 16.9383 14.4175 16.8499C14.841 16.7614 15.2175 16.5209 15.4758 16.1738L16.2258 15.1463C16.2647 15.0944 16.3207 15.0581 16.3839 15.0437C16.447 15.0292 16.5133 15.0377 16.5708 15.0675L21.2095 17.4675C21.2435 17.4853 21.2733 17.51 21.2971 17.54C21.3209 17.5701 21.3382 17.6048 21.3477 17.6419C21.3573 17.679 21.3589 17.7177 21.3525 17.7555C21.3462 17.7933 21.332 17.8293 21.3108 17.8613L21.3183 17.8838Z" fill="#919596"/>
</svg>
