<svg width="24" height="24" viewBox="0 0 24 24" fill="none" xmlns="http://www.w3.org/2000/svg">
<g clip-path="url(#clip0_248_4414)">
<path d="M21.051 9H20.955C20.8143 8.99876 20.6772 8.95516 20.5616 8.8749C20.446 8.79463 20.3573 8.68142 20.307 8.55C20.254 8.4231 20.24 8.28331 20.2667 8.14842C20.2934 8.01353 20.3597 7.88963 20.457 7.7925L20.5252 7.72425C20.9367 7.31126 21.1677 6.75207 21.1677 6.16913C21.1677 5.58618 20.9367 5.02699 20.5252 4.614L19.392 3.4815C18.9793 3.06977 18.4202 2.83854 17.8372 2.83854C17.2543 2.83854 16.6952 3.06977 16.2825 3.4815L16.2142 3.54975C16.1137 3.64658 15.9871 3.71196 15.8499 3.73785C15.7127 3.76375 15.571 3.74903 15.442 3.69552C15.3131 3.642 15.2026 3.55201 15.1241 3.43659C15.0455 3.32116 15.0024 3.18533 15 3.04575V2.949C14.9994 2.36597 14.7675 1.80699 14.3553 1.39473C13.943 0.982467 13.384 0.750596 12.801 0.75H11.199C10.616 0.750596 10.057 0.982467 9.64473 1.39473C9.23247 1.80699 9.0006 2.36597 9 2.949V3.04575C8.99634 3.18433 8.9526 3.31887 8.87405 3.4331C8.79551 3.54733 8.68553 3.63633 8.55744 3.68935C8.42936 3.74236 8.28865 3.7571 8.15235 3.7318C8.01606 3.70649 7.89002 3.64221 7.7895 3.54675L7.725 3.4785C7.31233 3.06677 6.75319 2.83554 6.17025 2.83554C5.58731 2.83554 5.02817 3.06677 4.6155 3.4785L3.4785 4.611C3.06709 5.02399 2.83609 5.58318 2.83609 6.16613C2.83609 6.74907 3.06709 7.30826 3.4785 7.72125L3.54675 7.7895C3.64504 7.89006 3.71083 8.01785 3.73557 8.15627C3.76031 8.2947 3.74287 8.43737 3.6855 8.56575C3.63403 8.69362 3.5456 8.80325 3.43151 8.8806C3.31741 8.95795 3.18284 8.99953 3.045 9H2.949C2.36597 9.0006 1.80699 9.23247 1.39473 9.64473C0.982467 10.057 0.750596 10.616 0.75 11.199V12.801C0.750596 13.384 0.982467 13.943 1.39473 14.3553C1.80699 14.7675 2.36597 14.9994 2.949 15H3.045C3.18571 15.0012 3.32279 15.0448 3.43837 15.1251C3.55396 15.2054 3.64268 15.3186 3.693 15.45C3.74597 15.5769 3.76 15.7167 3.73329 15.8516C3.70657 15.9865 3.64034 16.1104 3.543 16.2075L3.47475 16.2758C3.06334 16.6887 2.83234 17.2479 2.83234 17.8309C2.83234 18.4138 3.06334 18.973 3.47475 19.386L4.60725 20.5177C5.01985 20.9299 5.57919 21.1614 6.16238 21.1614C6.74556 21.1614 7.3049 20.9299 7.7175 20.5177L7.78575 20.4495C7.88637 20.3513 8.01415 20.2856 8.15255 20.2608C8.29095 20.2361 8.4336 20.2535 8.562 20.3107C8.68988 20.362 8.79953 20.4503 8.8769 20.5643C8.95427 20.6782 8.99583 20.8127 8.99625 20.9505V21.0472C8.99605 21.3366 9.05289 21.6231 9.16352 21.8904C9.27415 22.1578 9.4364 22.4007 9.64098 22.6053C9.84556 22.8099 10.0885 22.9721 10.3558 23.0827C10.6231 23.1934 10.9097 23.2502 11.199 23.25H12.801C13.384 23.2494 13.943 23.0175 14.3553 22.6053C14.7675 22.193 14.9994 21.634 15 21.051V20.9543C15.0037 20.8157 15.0474 20.6811 15.1259 20.5669C15.2045 20.4527 15.3145 20.3637 15.4426 20.3107C15.5706 20.2576 15.7114 20.2429 15.8476 20.2682C15.9839 20.2935 16.11 20.3578 16.2105 20.4533L16.2787 20.5215C16.6914 20.9332 17.2506 21.1645 17.8335 21.1645C18.4164 21.1645 18.9756 20.9332 19.3883 20.5215L20.5215 19.3898C20.9329 18.9768 21.1639 18.4176 21.1639 17.8346C21.1639 17.2517 20.9329 16.6925 20.5215 16.2795L20.4533 16.2113C20.355 16.1107 20.2892 15.9829 20.2644 15.8445C20.2397 15.7061 20.2571 15.5634 20.3145 15.435C20.3659 15.307 20.4542 15.1972 20.5683 15.1197C20.6824 15.0422 20.8171 15.0005 20.955 15H21.051C21.634 14.9994 22.193 14.7675 22.6053 14.3553C23.0175 13.943 23.2494 13.384 23.25 12.801V11.199C23.2494 10.616 23.0175 10.057 22.6053 9.64473C22.193 9.23247 21.634 9.0006 21.051 9ZM21.75 12.801C21.7498 12.9863 21.6761 13.164 21.545 13.295C21.414 13.4261 21.2363 13.4998 21.051 13.5H20.955C20.5198 13.5037 20.0953 13.6354 19.7344 13.8788C19.3735 14.1221 19.0923 14.4663 18.9257 14.8684C18.7591 15.2705 18.7145 15.7127 18.7976 16.14C18.8807 16.5672 19.0877 16.9606 19.3927 17.271L19.4603 17.3392C19.5912 17.4706 19.6647 17.6484 19.6647 17.8339C19.6647 18.0193 19.5912 18.1972 19.4603 18.3285L18.327 19.4603C18.1959 19.5913 18.0181 19.665 17.8328 19.665C17.6474 19.665 17.4696 19.5913 17.3385 19.4603L17.271 19.392C16.9605 19.0873 16.5671 18.8806 16.14 18.7977C15.7129 18.7149 15.2708 18.7595 14.8688 18.926C14.4669 19.0925 14.1228 19.3736 13.8794 19.7343C13.636 20.0949 13.504 20.5192 13.5 20.9543V21.051C13.4998 21.2363 13.4261 21.414 13.295 21.545C13.164 21.6761 12.9863 21.7498 12.801 21.75H11.199C11.0137 21.7498 10.836 21.6761 10.705 21.545C10.5739 21.414 10.5002 21.2363 10.5 21.051V20.9543C10.4979 20.5183 10.3671 20.0927 10.124 19.7308C9.88088 19.3689 9.53631 19.0869 9.13352 18.9201C8.73073 18.7533 8.28765 18.7092 7.85987 18.7933C7.4321 18.8774 7.03869 19.0859 6.729 19.3927L6.66075 19.461C6.52947 19.5917 6.35176 19.6651 6.1665 19.6651C5.98124 19.6651 5.80353 19.5917 5.67225 19.461L4.53975 18.3293C4.40881 18.1979 4.33528 18.0201 4.33528 17.8346C4.33528 17.6492 4.40881 17.4713 4.53975 17.34L4.608 17.2717C4.9134 16.9613 5.12061 16.5678 5.20379 16.1404C5.28697 15.713 5.24243 15.2705 5.07572 14.8682C4.90901 14.4659 4.62753 14.1216 4.26639 13.8783C3.90525 13.635 3.48045 13.5034 3.045 13.5H2.949C2.76367 13.4998 2.586 13.4261 2.45495 13.295C2.32391 13.164 2.2502 12.9863 2.25 12.801V11.199C2.2502 11.0137 2.32391 10.836 2.45495 10.705C2.586 10.5739 2.76367 10.5002 2.949 10.5H3.045C3.48023 10.4963 3.90474 10.3646 4.26561 10.1212C4.62648 9.87789 4.90774 9.53371 5.07433 9.13161C5.24091 8.7295 5.28545 8.28725 5.20239 7.86001C5.11933 7.43276 4.91235 7.03941 4.60725 6.729L4.53975 6.66075C4.40886 6.52957 4.33535 6.35182 4.33535 6.1665C4.33535 5.98118 4.40886 5.80343 4.53975 5.67225L5.67225 4.539C5.80334 4.40792 5.98112 4.33429 6.1665 4.33429C6.35188 4.33429 6.52966 4.40792 6.66075 4.539L6.72825 4.60725C7.03871 4.91221 7.43203 5.11908 7.85922 5.20211C8.28641 5.28514 8.72858 5.24065 9.13067 5.07419C9.53275 4.90773 9.87698 4.62664 10.1205 4.26596C10.364 3.90527 10.4959 3.48091 10.5 3.04575V2.949C10.5002 2.76367 10.5739 2.586 10.705 2.45495C10.836 2.32391 11.0137 2.2502 11.199 2.25H12.801C12.9863 2.2502 13.164 2.32391 13.295 2.45495C13.4261 2.586 13.4998 2.76367 13.5 2.949V3.04575C13.5038 3.48092 13.6357 3.90533 13.8791 4.26608C14.1225 4.62684 14.4667 4.90799 14.8687 5.07448C15.2708 5.24097 15.713 5.28545 16.1402 5.20236C16.5674 5.11928 16.9606 4.91231 17.271 4.60725L17.3392 4.539C17.4703 4.40792 17.6481 4.33429 17.8335 4.33429C18.0189 4.33429 18.1967 4.40792 18.3278 4.539L19.4603 5.67225C19.5911 5.80343 19.6647 5.98118 19.6647 6.1665C19.6647 6.35182 19.5911 6.52957 19.4603 6.66075L19.392 6.729C19.0869 7.03945 18.8799 7.43287 18.7968 7.86019C18.7138 8.2875 18.7584 8.72981 18.9251 9.13195C19.0917 9.53408 19.3731 9.87825 19.7341 10.1215C20.0951 10.3648 20.5197 10.4964 20.955 10.5H21.051C21.2363 10.5002 21.414 10.5739 21.545 10.705C21.6761 10.836 21.7498 11.0137 21.75 11.199V12.801Z" fill="#919596"/>
<path d="M12 6.75C10.9617 6.75 9.94662 7.05791 9.08326 7.63478C8.2199 8.21166 7.54699 9.0316 7.14963 9.99091C6.75227 10.9502 6.64831 12.0058 6.85088 13.0242C7.05345 14.0426 7.55347 14.9781 8.28769 15.7123C9.02192 16.4465 9.95738 16.9466 10.9758 17.1491C11.9942 17.3517 13.0498 17.2477 14.0091 16.8504C14.9684 16.453 15.7883 15.7801 16.3652 14.9167C16.9421 14.0534 17.25 13.0384 17.25 12C17.2484 10.6081 16.6948 9.27367 15.7106 8.28944C14.7263 7.30522 13.3919 6.75159 12 6.75ZM12 15.75C11.2583 15.75 10.5333 15.5301 9.91661 15.118C9.29993 14.706 8.81928 14.1203 8.53545 13.4351C8.25162 12.7498 8.17736 11.9958 8.32206 11.2684C8.46675 10.541 8.8239 9.8728 9.34835 9.34835C9.8728 8.8239 10.541 8.46675 11.2684 8.32205C11.9958 8.17736 12.7498 8.25162 13.4351 8.53545C14.1203 8.81928 14.706 9.29993 15.118 9.91661C15.5301 10.5333 15.75 11.2583 15.75 12C15.7488 12.9942 15.3533 13.9473 14.6503 14.6503C13.9473 15.3533 12.9942 15.7488 12 15.75Z" fill="#919596"/>
</g>
<defs>
<clipPath id="clip0_248_4414">
<rect width="24" height="24" fill="white"/>
</clipPath>
</defs>
</svg>
