<svg width="24" height="24" viewBox="0 0 24 24" fill="none" xmlns="http://www.w3.org/2000/svg">
<path fill-rule="evenodd" clip-rule="evenodd" d="M16.75 8C16.75 6.481 15.519 5.25 14 5.25H4C2.481 5.25 1.25 6.481 1.25 8V16C1.25 17.519 2.481 18.75 4 18.75H14C15.519 18.75 16.75 17.519 16.75 16V8ZM15.25 8V16C15.25 16.69 14.69 17.25 14 17.25H4C3.31 17.25 2.75 16.69 2.75 16V8C2.75 7.31 3.31 6.75 4 6.75H14C14.69 6.75 15.25 7.31 15.25 8Z" fill="#919596"/>
<path fill-rule="evenodd" clip-rule="evenodd" d="M22.75 16.259V7.74098C22.75 7.11398 22.415 6.53598 21.872 6.22398C21.328 5.91098 20.659 5.91398 20.118 6.22898C18.341 7.26598 15.622 8.85198 15.622 8.85198C15.392 8.98698 15.25 9.23298 15.25 9.49998V14.5C15.25 14.767 15.392 15.013 15.622 15.148C15.622 15.148 18.341 16.734 20.118 17.771C20.659 18.086 21.328 18.089 21.872 17.776C22.415 17.464 22.75 16.886 22.75 16.259ZM21.25 7.74098V16.259C21.25 16.349 21.202 16.431 21.125 16.476C21.047 16.52 20.951 16.52 20.874 16.475L16.75 14.069V9.93098L20.874 7.52498C20.951 7.47998 21.047 7.47998 21.125 7.52398C21.202 7.56898 21.25 7.65098 21.25 7.74098Z" fill="#919596"/>
<path fill-rule="evenodd" clip-rule="evenodd" d="M12 8.25H10C9.586 8.25 9.25 8.586 9.25 9C9.25 9.414 9.586 9.75 10 9.75H12C12.414 9.75 12.75 9.414 12.75 9C12.75 8.586 12.414 8.25 12 8.25Z" fill="#919596"/>
</svg>
