<svg width="24" height="24" viewBox="0 0 24 24" fill="none" xmlns="http://www.w3.org/2000/svg">
<path fill-rule="evenodd" clip-rule="evenodd" d="M9 4.75C7.48122 4.75 6.25 5.98122 6.25 7.5C6.25 9.01878 7.48122 10.25 9 10.25C10.5188 10.25 11.75 9.01878 11.75 7.5C11.75 5.98122 10.5188 4.75 9 4.75ZM4.75 7.5C4.75 5.15279 6.65279 3.25 9 3.25C11.3472 3.25 13.25 5.15279 13.25 7.5C13.25 9.84721 11.3472 11.75 9 11.75C6.65279 11.75 4.75 9.84721 4.75 7.5ZM6.72833 15.122L6.55024 15.1505C4.93703 15.4079 3.75 16.7994 3.75 18.433C3.75 18.8842 4.11577 19.25 4.56697 19.25H13.433C13.8842 19.25 14.25 18.8842 14.25 18.433C14.25 16.7994 13.063 15.4079 11.4498 15.1505L11.2717 15.122C9.76675 14.8819 8.23325 14.8819 6.72833 15.122ZM6.49193 13.6408C8.15346 13.3756 9.84654 13.3756 11.5081 13.6408L11.6862 13.6692C14.0273 14.0428 15.75 16.0622 15.75 18.433C15.75 19.7127 14.7127 20.75 13.433 20.75H4.56697C3.28734 20.75 2.25 19.7127 2.25 18.433C2.25 16.0622 3.97267 14.0428 6.31383 13.6692L6.49193 13.6408Z" fill="#919596"/>
<path fill-rule="evenodd" clip-rule="evenodd" d="M14.25 4C14.25 3.58579 14.5858 3.25 15 3.25C17.3472 3.25 19.25 5.15279 19.25 7.5C19.25 9.84721 17.3472 11.75 15 11.75C14.5858 11.75 14.25 11.4142 14.25 11C14.25 10.5858 14.5858 10.25 15 10.25C16.5188 10.25 17.75 9.01878 17.75 7.5C17.75 5.98122 16.5188 4.75 15 4.75C14.5858 4.75 14.25 4.41421 14.25 4ZM15.4912 14.3814C15.4912 13.9672 15.827 13.6314 16.2412 13.6314H17.2093C17.3689 13.6314 17.5285 13.644 17.6862 13.6692C20.0273 14.0428 21.75 16.0622 21.75 18.433C21.75 19.7127 20.7127 20.75 19.433 20.75H17.3899C16.9757 20.75 16.6399 20.4142 16.6399 20C16.6399 19.5858 16.9757 19.25 17.3899 19.25H19.433C19.8842 19.25 20.25 18.8842 20.25 18.433C20.25 16.7994 19.063 15.4079 17.4498 15.1505C17.3704 15.1378 17.2898 15.1314 17.2093 15.1314H16.2412C15.827 15.1314 15.4912 14.7956 15.4912 14.3814Z" fill="#919596"/>
</svg>
