<svg width="17" height="17" viewBox="0 0 17 17" fill="none" xmlns="http://www.w3.org/2000/svg">
<path d="M14.1706 1.34896L8.45207 6.94045L2.98761 1.3179C2.51148 0.827991 1.73381 0.816902 1.2439 1.29303C0.754155 1.76901 0.742909 2.54684 1.21904 3.03674L6.68414 8.62526L1.19147 13.9635C0.701566 14.4396 0.690476 15.2173 1.16661 15.7072C1.64258 16.1969 2.42026 16.208 2.91016 15.7319L8.39416 10.4021L13.8421 16.0076C14.3179 16.4972 15.0959 16.5086 15.5858 16.0325C16.0757 15.5564 16.0865 14.7784 15.6106 14.2888L10.1629 8.68341L15.8896 3.11769C16.3795 2.64156 16.3903 1.86357 15.9145 1.37399C15.4382 0.883923 14.6561 0.877122 14.1706 1.34896Z" fill="white"/>
</svg>
