<svg width="24" height="24" viewBox="0 0 24 24" fill="none" xmlns="http://www.w3.org/2000/svg">
<path d="M12.0114 20.5C13.0857 20.5 14 19.6253 14 18.5488C14 17.4722 13.1086 16.5975 12.0114 16.5975C10.8914 16.5975 10 17.4498 10 18.5488C10 19.6253 10.8914 20.5 12.0114 20.5Z" fill="white"/>
<path d="M12.0114 13.9512C13.0857 13.9512 14 13.0765 14 12C14 10.9235 13.1086 10.0488 12.0114 10.0488C10.8914 10.0488 10 10.901 10 12C10 13.0765 10.8914 13.9512 12.0114 13.9512Z" fill="white"/>
<path d="M12.0114 7.40246C13.0857 7.40246 14 6.52777 14 5.45123C14 4.37469 13.1086 3.5 12.0114 3.5C10.8914 3.5 10 4.35226 10 5.45123C10 6.52777 10.8914 7.40246 12.0114 7.40246Z" fill="white"/>
</svg>
