<svg width="24" height="24" viewBox="0 0 24 24" fill="none" xmlns="http://www.w3.org/2000/svg">
<g clip-path="url(#clip0_309_4805)">
<path d="M0.705477 0.704941C1.0274 0.384379 1.43347 0.161449 1.87674 0.0619122C2.32001 -0.037625 2.7824 -0.0097068 3.21048 0.142441L22.358 8.03994C22.7995 8.18623 23.1889 8.45805 23.4783 8.82216C23.7678 9.18626 23.9448 9.62685 23.9878 10.09C24.0308 10.5532 23.9378 11.0188 23.7203 11.43C23.5027 11.8411 23.1701 12.1799 22.763 12.4049L22.6805 12.4424L15.128 15.5699C14.9794 15.624 14.8187 15.6358 14.6638 15.6041C14.5089 15.5723 14.3658 15.4982 14.2505 15.3899L10.298 11.4374C10.2155 11.365 10.1487 11.2765 10.1018 11.1772C10.0548 11.0779 10.0288 10.9701 10.0252 10.8604C10.0216 10.7507 10.0406 10.6414 10.081 10.5393C10.1213 10.4372 10.1822 10.3444 10.2598 10.2668C10.3375 10.1892 10.4302 10.1283 10.5323 10.0879C10.6344 10.0476 10.7437 10.0286 10.8534 10.0322C10.9631 10.0358 11.071 10.0618 11.1702 10.1087C11.2695 10.1556 11.3581 10.2224 11.4305 10.3049L15.0005 13.8824L22.028 10.9874C22.1581 10.914 22.2633 10.8034 22.3301 10.6697C22.3969 10.5361 22.4223 10.3856 22.403 10.2374C22.3865 10.074 22.3211 9.91933 22.2154 9.79357C22.1098 9.66782 21.9686 9.57682 21.8105 9.53244L2.65548 1.64244C2.51528 1.59439 2.36444 1.58648 2.21999 1.61961C2.07553 1.65274 1.94322 1.72559 1.83798 1.82994C1.73766 1.92374 1.66502 2.04329 1.62799 2.17554C1.59096 2.3078 1.59095 2.44768 1.62798 2.57994L9.55548 21.8549C9.59895 22.0047 9.68806 22.1373 9.81039 22.2341C9.93272 22.3308 10.0822 22.3871 10.238 22.3949C10.3861 22.4142 10.5367 22.3889 10.6703 22.322C10.8039 22.2552 10.9145 22.15 10.988 22.0199L12.923 17.3474C13.0045 17.1485 13.1618 16.9902 13.3601 16.9072C13.5584 16.8242 13.7816 16.8234 13.9805 16.9049C14.1794 16.9865 14.3378 17.1437 14.4207 17.342C14.5037 17.5404 14.5045 17.7635 14.423 17.9624L12.4655 22.6874L12.428 22.7699C12.2225 23.1479 11.9175 23.4624 11.546 23.6792C11.1744 23.896 10.7506 24.007 10.3205 23.9999H10.088C9.6327 23.9636 9.19792 23.7952 8.83691 23.5155C8.47589 23.2357 8.20432 22.8567 8.05548 22.4249L0.127975 3.15744C-0.014307 2.73549 -0.0356255 2.28214 0.0664387 1.84871C0.168501 1.41527 0.389868 1.01906 0.705477 0.704941Z" fill="white"/>
</g>
<defs>
<clipPath id="clip0_309_4805">
<rect width="24" height="24" fill="white" transform="matrix(-1 0 0 1 24 0)"/>
</clipPath>
</defs>
</svg>
